<svg id="Layer_1" data-name="Layer 1" xmlns="http://www.w3.org/2000/svg" viewBox="0 0 354.33 354.33"><defs><style>.cls-1{fill:#231f20;}</style></defs><title>Untitled-1</title><path class="cls-1" d="M104.18,237.15l37.52-75.64,18.76-37.82,4.68-9.45,2.34-4.73,2.26-4.77,9-19L186,70.33l-3.55,16.61h0c-3.6,16.44-7.19,32.86-9.36,49.46a298.9,298.9,0,0,0-2.32,50.13,230.15,230.15,0,0,0,6.89,49.65c4.25,16.15,10.75,31.8,20.13,45.66A108.24,108.24,0,0,0,214,300.9c1.5,1.45,3.15,2.73,4.73,4.08s3.3,2.55,5.06,3.66,3.53,2.2,5.33,3.24c.92.5,1.86.93,2.79,1.4l1.4.69,1.45.59c1,.37,1.91.83,2.89,1.13l3,.91a38.39,38.39,0,0,0,6.11,1,37.86,37.86,0,0,0,12.32-.93A44.91,44.91,0,0,0,270.53,312a44.36,44.36,0,0,0,9.76-7.71,48.4,48.4,0,0,0,4-4.78L286,297c.57-.87,1-1.82,1.52-2.72a36.24,36.24,0,0,0,3.92-11.8A37.49,37.49,0,0,0,291.4,270a33.22,33.22,0,0,0-4.34-11.67,30.06,30.06,0,0,0-20.13-13.74,26.28,26.28,0,0,0-6.26-.46,21.12,21.12,0,0,0-6.13,1.26c-4,1.43-7.48,3.85-11,6.18,3.46-2.36,6.94-4.82,10.91-6.3a21.75,21.75,0,0,1,6.17-1.33,26.18,26.18,0,0,1,6.31.41A30.42,30.42,0,0,1,287.48,258,33.57,33.57,0,0,1,292,269.86a38,38,0,0,1,.21,12.68,37.08,37.08,0,0,1-3.88,12.08c-.51.93-1,1.9-1.53,2.8l-1.74,2.67A49.1,49.1,0,0,1,281,305a45.2,45.2,0,0,1-9.91,8,46,46,0,0,1-11.77,4.89,40.25,40.25,0,0,1-19.08.09l-3.08-.92c-1-.31-2-.76-3-1.13l-1.48-.59-1.45-.69c-1-.47-1.93-.91-2.87-1.41-1.85-1.05-3.73-2.06-5.48-3.26s-3.48-2.44-5.21-3.69-3.33-2.65-4.86-4.12A109.15,109.15,0,0,1,196.2,283c-9.66-14-16.42-29.81-20.89-46.14a233,233,0,0,1-7.46-50.15A302.37,302.37,0,0,1,169.7,136c2-16.82,5.49-33.38,8.93-49.86h0l3.72,1.25-9,19.1L171,111.24,168.7,116,164,125.43l-18.77,37.83-37.53,75.67Z"/><path class="cls-1" d="M144.19,242.91a159.65,159.65,0,0,0-41.3-3.51,126.08,126.08,0,0,0-40.11,8.44l-1.52-4.18a129.63,129.63,0,0,1,41.57-6.48A160.41,160.41,0,0,1,144.19,242.91Z"/><path class="cls-1" d="M193.82,47a12.48,12.48,0,0,1,.06-4.64,12.86,12.86,0,0,1,2-4.14A5,5,0,0,1,199,35.88c1.08-.14,1.38,1,1.52,1.89a18.89,18.89,0,0,1,.2,3.28,6.13,6.13,0,0,1-.68,3.08,5,5,0,0,1-2.81,2.19C196.92,46.46,193.89,47.73,193.82,47Z"/></svg>