<svg width="393" height="36" viewBox="0 0 393 36" fill="none" xmlns="http://www.w3.org/2000/svg">
<path d="M4.52553 33.2589H21.6998V35.3859H0V0.587402H4.52553V33.2589Z" fill="#B89B7A"/>
<path d="M28.4312 0.587402H50.1309V2.70557H32.9567V16.4114H48.0038V18.5385H32.9567V33.2589H50.1309V35.3859H28.4312V0.587402Z" fill="#B89B7A"/>
<path d="M61.8256 18.0935V35.3859H57.3V0.587402H61.8256V18.0045L80.9168 0.587402H83.6129L66.3073 16.3669L85.0047 35.3859H78.8248L61.8256 18.0935Z" fill="#B89B7A"/>
<path d="M89.7403 18.0045C89.7403 29.5921 96.568 34.2734 103.177 34.2734C109.786 34.2734 116.613 29.5921 116.613 18.0045C116.613 6.41682 109.786 1.73549 103.177 1.73549C96.568 1.73549 89.7403 6.41682 89.7403 18.0045ZM121.699 18.0045C121.699 29.0136 113.217 36 103.177 36C93.1366 36 84.6545 29.0136 84.6545 18.0045C84.6545 6.99531 93.1279 0.00891113 103.177 0.00891113C113.226 0.00891113 121.699 6.99531 121.699 18.0045Z" fill="#B89B7A"/>
<path d="M143.18 13.3142L143.915 14.1953C146.874 12.7357 149.045 9.50507 149.045 6.10532C149.045 3.40865 147.609 1.29048 144.476 1.29048C141.648 1.29048 139.863 3.19506 139.863 5.98072C139.871 8.45488 140.869 10.6621 143.18 13.3142ZM159.523 14.1152C158 19.2059 156.345 23.2287 154.612 26.3169L162.613 35.3859H157.221L152.31 29.8146C148.747 34.3624 144.834 36 140.834 36C132.702 36 129.175 30.9182 129.175 26.1389C129.175 20.9236 132.737 17.159 140.09 15.9219L139.959 15.7884C137.779 13.3142 135.871 10.3951 135.871 7.4759C135.871 2.70556 139.915 0 144.353 0C148.397 0 152.091 2.08257 152.091 6.10532C152.091 10.0836 148.003 13.3142 143.959 14.2398L153.702 25.2935C155.269 22.4188 156.66 18.7075 157.833 14.1063H159.523V14.1152ZM151.391 28.7911L140.125 16.0109C136.256 17.604 133.735 20.5676 133.735 25.9609C133.735 30.6512 136.738 34.4514 141.736 34.4514C144.782 34.4514 148.266 32.9028 151.391 28.7911Z" fill="#B89B7A"/>
<path d="M189.048 10.315C189.048 4.52115 185.267 2.57207 179.218 2.57207H174.307V18.049H179.218C185.267 18.049 189.048 16.0999 189.048 10.315ZM174.307 20.0425V35.3859H169.791V0.587402H179.533C187.061 0.587402 194.143 2.92807 194.143 10.315C194.143 17.7019 187.061 20.0425 179.533 20.0425H174.307Z" fill="#B89B7A"/>
<path d="M202.607 20.3896H214.223L208.437 5.40223L202.607 20.3896ZM215.352 23.3978H201.434L196.777 35.377H194.431L207.868 0.578491H211.256L224.692 35.377H219.956L215.352 23.3978Z" fill="#B89B7A"/>
<path d="M247.959 9.64748C247.959 3.85366 244.177 2.57207 238.129 2.57207H234.96V16.7229H238.129C244.177 16.7229 247.959 15.4413 247.959 9.64748ZM234.96 35.3859H230.434V0.587402H238.435C245.954 0.587402 253.044 2.26948 253.044 9.64748C253.044 15.2633 248.957 17.5595 243.74 18.3605L256.957 35.3859H251.39L238.426 18.7165H234.951V35.3859H234.96Z" fill="#B89B7A"/>
<path d="M273.659 35.3859H269.133V2.70557H256.957V0.587402H285.835V2.70557H273.659V35.3859Z" fill="#B89B7A"/>
<path d="M317.838 0.587402V35.3859H315.395L292.785 4.12065V35.3859H290.396V0.587402H295.656L315.439 27.91V0.587402H317.838Z" fill="#B89B7A"/>
<path d="M326.521 0.587402H348.221V2.70557H331.046V16.4114H346.093V18.5385H331.046V33.2589H348.221V35.3859H326.521V0.587402Z" fill="#B89B7A"/>
<path d="M372.923 9.64748C372.923 3.85366 369.141 2.57207 363.093 2.57207H359.915V16.7229H363.093C369.133 16.7229 372.923 15.4413 372.923 9.64748ZM359.915 35.3859H355.39V0.587402H363.39C370.91 0.587402 378.009 2.26948 378.009 9.64748C378.009 15.2633 373.921 17.5595 368.704 18.3605L381.921 35.3859H376.354L363.39 18.7165H359.915V35.3859Z" fill="#B89B7A"/>
<path d="M392.312 0.587402H387.786V35.3859H392.312V0.587402Z" fill="#B89B7A"/>
<path d="M392.303 0.587402H387.786V35.3859H392.303V0.587402Z" fill="#B89B7A"/>
</svg>
