<svg width="252" height="279" viewBox="0 0 252 279" fill="none" xmlns="http://www.w3.org/2000/svg">
<path d="M26.2 276.2C26 229.6 22 181.2 36 135.9C37.2 131.9 38.2 127.8 37.5 123.6C36.7 119.2 35.7 114.7 35.7 110.2C35.7 97 40 84.3 45.1 72.2C49.7 61.1 53.8 48.7 62.2 39.5C71 29.8 83.4 23 97.2 23C126.2 23 149.7 51.9 149.7 87.6C149.7 102.3 145.7 115.9 138.9 126.8C129.9 141.3 116.5 150.1 98.9 152.3C103.5 155 108.5 157 113.2 159.6C136.8 172.4 156.2 186.7 168.4 209.6" stroke="#224352" stroke-width="4.5588" stroke-miterlimit="10" stroke-linecap="round"/>
<path d="M85.3008 101.9L90.6008 113.3L96.4008 104.5C94.3008 102.2 89.8008 102.1 85.3008 101.9Z" fill="#224352"/>
<path d="M77.9 104C72.2 100.5 66 97.7002 59.6 95.3002C53.2 92.9002 46.7 90.9002 40.1 89.1002C26.9 85.5002 13.5 82.7002 0 80.2002C13.6 82.2002 27.1 84.5002 40.5 87.6002C47.2 89.2002 53.8 90.9002 60.4 93.1002C66.9 95.3002 73.4 97.9002 79.5 101.3C80.2 101.7 80.5 102.6 80.1 103.4C79.7 104.2 78.7 104.4 77.9 104Z" fill="#224352"/>
<path d="M78.9008 111.1C73.0008 108.7 66.8008 107.2 60.3008 106.8C53.9008 106.4 47.4008 106.7 40.9008 107.4C34.4008 108.1 28.0008 109 21.6008 110.1C15.2008 111.1 8.70078 112.3 2.30078 113.4C8.70078 112 15.0008 110.6 21.4008 109.3C27.8008 108 34.2008 106.8 40.7008 105.9C47.2008 105 53.7008 104.4 60.4008 104.5C67.0008 104.6 73.7008 105.9 80.0008 108.2C80.8008 108.5 81.2008 109.4 80.9008 110.2C80.6008 111 79.8008 111.4 78.9008 111.1Z" fill="#224352"/>
<path d="M103.099 103.8C111.299 101.8 119.399 99.7004 127.699 97.8004C135.899 95.9004 144.199 94.3004 152.499 92.9004C160.799 91.6004 169.199 90.5004 177.599 90.1004C185.999 89.7004 194.499 89.8004 202.799 91.4004C194.499 90.1004 185.999 90.2004 177.699 90.8004C169.299 91.5004 160.999 92.8004 152.799 94.4004C144.599 96.0004 136.399 97.9004 128.199 100C120.099 102.1 111.999 104.4 103.899 106.7C103.099 106.9 102.299 106.5 101.999 105.7C101.799 104.8 102.299 104 103.099 103.8Z" fill="#224352"/>
<path d="M102 110.8C104.4 109.7 106.8 109.2 109.3 108.8C111.7 108.4 114.2 108.3 116.6 108.2C121.5 108.1 126.3 108.4 131 108.9C140.6 109.9 150 111.5 159.4 113.4C178.1 117.2 196.7 121.9 215.1 126.7C196.5 122.4 177.9 118.2 159.1 114.9C149.7 113.3 140.3 111.9 130.8 111.2C126.1 110.9 121.3 110.7 116.6 110.9C114.3 111 111.9 111.2 109.7 111.7C107.4 112.1 105.2 112.7 103.2 113.6C102.4 114 101.5 113.6 101.2 112.9C100.9 112.1 101.2 111.2 102 110.8Z" fill="#224352"/>
<path d="M65.3 25L30 5L44.7 51.3" stroke="#224352" stroke-width="4.5588" stroke-miterlimit="10" stroke-linecap="round"/>
<path d="M135.1 26.2002L172.6 15.7002L155.1 51.4002" stroke="#224352" stroke-width="4.5588" stroke-miterlimit="10" stroke-linecap="round"/>
<path d="M207.901 266.3C201.701 272.4 193.201 276.2 183.801 276.2C164.801 276.2 149.301 260.8 149.301 241.7C149.301 222.6 164.701 207.2 183.801 207.2C192.801 207.2 200.901 210.6 207.101 216.2" stroke="#224352" stroke-width="4.5588" stroke-miterlimit="10" stroke-linecap="round"/>
<path d="M181.999 209.1C168.399 220.1 159.099 235.3 153.199 254" stroke="#224352" stroke-width="4.5588" stroke-miterlimit="10" stroke-linecap="round"/>
<path d="M193 212.7C177.7 225.8 167.2 244 160.5 266.3" stroke="#224352" stroke-width="4.5588" stroke-miterlimit="10" stroke-linecap="round"/>
<path d="M165.6 251.8L182.3 274.3" stroke="#224352" stroke-width="4.5588" stroke-miterlimit="10" stroke-linecap="round"/>
<path d="M173 240.9L194.4 271.8" stroke="#224352" stroke-width="4.5588" stroke-miterlimit="10" stroke-linecap="round"/>
<path d="M207.7 266.5C209.9 264.2 213 261.9 214.1 258.9C216.1 253.7 209.3 253.6 206.3 256C203.7 258.2 203.1 261.5 204.3 264.6C206 269 210.3 274.3 215.4 275C218.8 275.5 220.6 273.1 222.7 270.9C224.7 268.9 227.3 268.1 230.1 268.1C234.3 268.2 238.5 268.9 241.6 272C242.7 273.1 243.7 274.4 245.1 275.2C246.5 275.9 248.5 275.8 249.2 274.4" stroke="#224352" stroke-width="4.5588" stroke-miterlimit="10" stroke-linecap="round"/>
</svg>
