<svg width="248" height="32" viewBox="0 0 248 32" fill="none" xmlns="http://www.w3.org/2000/svg">
<path d="M0.726 24V23.67L1.386 23.406C1.826 23.252 2.112 23.043 2.244 22.779C2.398 22.515 2.475 22.163 2.475 21.723V4.497C2.475 4.057 2.409 3.705 2.277 3.441C2.145 3.177 1.848 2.968 1.386 2.814L0.726 2.55V2.22H9.207V2.55L8.547 2.814C8.107 2.968 7.81 3.177 7.656 3.441C7.524 3.705 7.458 4.057 7.458 4.497V21.723C7.458 22.163 7.524 22.515 7.656 22.779C7.81 23.021 8.107 23.23 8.547 23.406L9.207 23.67V24H0.726ZM11.2458 24V23.67L11.7078 23.538C12.4778 23.318 12.8628 22.779 12.8628 21.921V11.592C12.8628 11.108 12.7858 10.756 12.6318 10.536C12.4778 10.294 12.1808 10.129 11.7408 10.041L11.2458 9.909V9.579L16.8888 7.665L17.2188 7.995L17.4828 9.975C18.2528 9.293 19.1218 8.732 20.0898 8.292C21.0578 7.852 22.0148 7.632 22.9608 7.632C24.4128 7.632 25.5238 8.028 26.2938 8.82C27.0858 9.612 27.4818 10.822 27.4818 12.45V21.954C27.4818 22.812 27.8998 23.351 28.7358 23.571L29.0328 23.67V24H21.2448V23.67L21.6738 23.538C22.4438 23.296 22.8288 22.757 22.8288 21.921V11.394C22.8288 9.986 22.1248 9.282 20.7168 9.282C19.7488 9.282 18.6928 9.766 17.5488 10.734V21.954C17.5488 22.812 17.9338 23.351 18.7038 23.571L19.0008 23.67V24H11.2458ZM37.0928 24.495C35.6848 24.495 34.5848 24.143 33.7928 23.439C33.0228 22.735 32.6378 21.613 32.6378 20.073V8.787H30.3608V8.457L31.1528 8.325C31.8348 8.171 32.4178 7.951 32.9018 7.665C33.4078 7.379 33.9028 6.994 34.3868 6.51L37.0928 3.507H37.4228L37.3238 8.127H41.0198V8.787H37.2908V20.667C37.2908 21.437 37.4558 22.02 37.7858 22.416C38.1378 22.812 38.5778 23.01 39.1058 23.01C39.5678 23.01 39.9748 22.9 40.3268 22.68C40.6788 22.438 41.0308 22.119 41.3828 21.723L41.7128 22.053C41.2728 22.801 40.6678 23.395 39.8978 23.835C39.1278 24.275 38.1928 24.495 37.0928 24.495ZM51.5929 7.632C53.0229 7.632 54.2439 7.929 55.2559 8.523C56.2679 9.095 57.0379 9.887 57.5659 10.899C58.1159 11.889 58.3909 13.022 58.3909 14.298C58.3909 14.54 58.3799 14.793 58.3579 15.057C58.3359 15.299 58.2919 15.519 58.2259 15.717H48.3919C48.4139 18.093 48.8319 19.809 49.6459 20.865C50.4819 21.899 51.7139 22.416 53.3419 22.416C54.4419 22.416 55.3329 22.24 56.0149 21.888C56.6969 21.536 57.3349 21.019 57.9289 20.337L58.2589 20.634C57.5769 21.844 56.6639 22.79 55.5199 23.472C54.3979 24.154 53.0449 24.495 51.4609 24.495C49.8989 24.495 48.5129 24.165 47.3029 23.505C46.0929 22.823 45.1469 21.855 44.4649 20.601C43.7829 19.347 43.4419 17.851 43.4419 16.113C43.4419 14.309 43.8379 12.78 44.6299 11.526C45.4219 10.25 46.4339 9.282 47.6659 8.622C48.9199 7.962 50.2289 7.632 51.5929 7.632ZM51.4939 8.292C50.8559 8.292 50.3059 8.49 49.8439 8.886C49.4039 9.26 49.0519 9.942 48.7879 10.932C48.5459 11.9 48.4139 13.275 48.3919 15.057H54.0349C54.2549 12.659 54.1669 10.932 53.7709 9.876C53.3749 8.82 52.6159 8.292 51.4939 8.292ZM60.6955 24V23.67L61.1575 23.538C61.9275 23.318 62.3125 22.779 62.3125 21.921V11.592C62.3125 11.108 62.2355 10.756 62.0815 10.536C61.9275 10.294 61.6305 10.129 61.1905 10.041L60.6955 9.909V9.579L66.3385 7.665L66.6685 7.995L66.9325 9.975C67.7025 9.293 68.5715 8.732 69.5395 8.292C70.5075 7.852 71.4645 7.632 72.4105 7.632C73.8625 7.632 74.9735 8.028 75.7435 8.82C76.5355 9.612 76.9315 10.822 76.9315 12.45V21.954C76.9315 22.812 77.3495 23.351 78.1855 23.571L78.4825 23.67V24H70.6945V23.67L71.1235 23.538C71.8935 23.296 72.2785 22.757 72.2785 21.921V11.394C72.2785 9.986 71.5745 9.282 70.1665 9.282C69.1985 9.282 68.1425 9.766 66.9985 10.734V21.954C66.9985 22.812 67.3835 23.351 68.1535 23.571L68.4505 23.67V24H60.6955ZM86.5425 24.495C85.1345 24.495 84.0345 24.143 83.2425 23.439C82.4725 22.735 82.0875 21.613 82.0875 20.073V8.787H79.8105V8.457L80.6025 8.325C81.2845 8.171 81.8675 7.951 82.3515 7.665C82.8575 7.379 83.3525 6.994 83.8365 6.51L86.5425 3.507H86.8725L86.7735 8.127H90.4695V8.787H86.7405V20.667C86.7405 21.437 86.9055 22.02 87.2355 22.416C87.5875 22.812 88.0275 23.01 88.5555 23.01C89.0175 23.01 89.4245 22.9 89.7765 22.68C90.1285 22.438 90.4805 22.119 90.8325 21.723L91.1625 22.053C90.7225 22.801 90.1175 23.395 89.3475 23.835C88.5775 24.275 87.6425 24.495 86.5425 24.495ZM96.8163 5.916C96.0683 5.916 95.4303 5.685 94.9023 5.223C94.3963 4.739 94.1433 4.134 94.1433 3.408C94.1433 2.66 94.3963 2.055 94.9023 1.593C95.4303 1.131 96.0683 0.899998 96.8163 0.899998C97.5643 0.899998 98.1913 1.131 98.6973 1.593C99.2033 2.055 99.4563 2.66 99.4563 3.408C99.4563 4.134 99.2033 4.739 98.6973 5.223C98.1913 5.685 97.5643 5.916 96.8163 5.916ZM92.9223 24V23.67L93.3843 23.538C93.8243 23.406 94.1213 23.208 94.2753 22.944C94.4513 22.68 94.5393 22.328 94.5393 21.888V11.559C94.5393 11.097 94.4513 10.756 94.2753 10.536C94.1213 10.294 93.8243 10.129 93.3843 10.041L92.9223 9.942V9.612L98.9613 7.665L99.2913 7.995L99.1923 12.681V21.921C99.1923 22.361 99.2693 22.713 99.4233 22.977C99.5993 23.241 99.8963 23.439 100.314 23.571L100.644 23.67V24H92.9223ZM111.114 24.495C109.442 24.495 107.99 24.154 106.758 23.472C105.526 22.768 104.569 21.778 103.887 20.502C103.227 19.226 102.897 17.73 102.897 16.014C102.897 14.298 103.249 12.813 103.953 11.559C104.679 10.305 105.658 9.337 106.89 8.655C108.144 7.973 109.552 7.632 111.114 7.632C112.676 7.632 114.073 7.973 115.305 8.655C116.537 9.315 117.505 10.272 118.209 11.526C118.935 12.78 119.298 14.276 119.298 16.014C119.298 17.752 118.957 19.259 118.275 20.535C117.615 21.789 116.669 22.768 115.437 23.472C114.227 24.154 112.786 24.495 111.114 24.495ZM111.114 23.835C111.884 23.835 112.5 23.615 112.962 23.175C113.424 22.735 113.754 21.954 113.952 20.832C114.172 19.71 114.282 18.126 114.282 16.08C114.282 14.012 114.172 12.417 113.952 11.295C113.754 10.173 113.424 9.392 112.962 8.952C112.5 8.512 111.884 8.292 111.114 8.292C110.344 8.292 109.717 8.512 109.233 8.952C108.771 9.392 108.43 10.173 108.21 11.295C108.012 12.417 107.913 14.012 107.913 16.08C107.913 18.126 108.012 19.71 108.21 20.832C108.43 21.954 108.771 22.735 109.233 23.175C109.717 23.615 110.344 23.835 111.114 23.835ZM121.408 24V23.67L121.87 23.538C122.64 23.318 123.025 22.779 123.025 21.921V11.592C123.025 11.108 122.948 10.756 122.794 10.536C122.64 10.294 122.343 10.129 121.903 10.041L121.408 9.909V9.579L127.051 7.665L127.381 7.995L127.645 9.975C128.415 9.293 129.284 8.732 130.252 8.292C131.22 7.852 132.177 7.632 133.123 7.632C134.575 7.632 135.686 8.028 136.456 8.82C137.248 9.612 137.644 10.822 137.644 12.45V21.954C137.644 22.812 138.062 23.351 138.898 23.571L139.195 23.67V24H131.407V23.67L131.836 23.538C132.606 23.296 132.991 22.757 132.991 21.921V11.394C132.991 9.986 132.287 9.282 130.879 9.282C129.911 9.282 128.855 9.766 127.711 10.734V21.954C127.711 22.812 128.096 23.351 128.866 23.571L129.163 23.67V24H121.408ZM141.212 24V23.67L141.905 23.406C142.345 23.252 142.631 23.043 142.763 22.779C142.895 22.515 142.961 22.174 142.961 21.756V4.497C142.961 4.057 142.895 3.705 142.763 3.441C142.631 3.177 142.345 2.968 141.905 2.814L141.212 2.55V2.22H149.429V2.55L148.703 2.847C148.329 2.979 148.076 3.177 147.944 3.441C147.812 3.705 147.746 4.068 147.746 4.53V21.789C147.746 22.229 147.812 22.57 147.944 22.812C148.098 23.054 148.384 23.252 148.802 23.406L149.429 23.67V24H141.212ZM153.389 24V23.67L153.818 23.538C154.258 23.406 154.489 23.186 154.511 22.878C154.533 22.57 154.401 22.218 154.115 21.822L147.779 12.813L156.128 4.299C156.436 3.991 156.601 3.694 156.623 3.408C156.667 3.122 156.458 2.902 155.996 2.748L155.435 2.55V2.22H160.253V2.55L159.395 2.814C158.911 2.968 158.526 3.155 158.24 3.375C157.954 3.595 157.624 3.892 157.25 4.266L151.343 10.305L159.098 21.624C159.428 22.108 159.736 22.504 160.022 22.812C160.33 23.12 160.759 23.362 161.309 23.538L161.771 23.67V24H153.389ZM170.811 7.632C172.241 7.632 173.462 7.929 174.474 8.523C175.486 9.095 176.256 9.887 176.784 10.899C177.334 11.889 177.609 13.022 177.609 14.298C177.609 14.54 177.598 14.793 177.576 15.057C177.554 15.299 177.51 15.519 177.444 15.717H167.61C167.632 18.093 168.05 19.809 168.864 20.865C169.7 21.899 170.932 22.416 172.56 22.416C173.66 22.416 174.551 22.24 175.233 21.888C175.915 21.536 176.553 21.019 177.147 20.337L177.477 20.634C176.795 21.844 175.882 22.79 174.738 23.472C173.616 24.154 172.263 24.495 170.679 24.495C169.117 24.495 167.731 24.165 166.521 23.505C165.311 22.823 164.365 21.855 163.683 20.601C163.001 19.347 162.66 17.851 162.66 16.113C162.66 14.309 163.056 12.78 163.848 11.526C164.64 10.25 165.652 9.282 166.884 8.622C168.138 7.962 169.447 7.632 170.811 7.632ZM170.712 8.292C170.074 8.292 169.524 8.49 169.062 8.886C168.622 9.26 168.27 9.942 168.006 10.932C167.764 11.9 167.632 13.275 167.61 15.057H173.253C173.473 12.659 173.385 10.932 172.989 9.876C172.593 8.82 171.834 8.292 170.712 8.292ZM188.196 7.632C189.626 7.632 190.847 7.929 191.859 8.523C192.871 9.095 193.641 9.887 194.169 10.899C194.719 11.889 194.994 13.022 194.994 14.298C194.994 14.54 194.983 14.793 194.961 15.057C194.939 15.299 194.895 15.519 194.829 15.717H184.995C185.017 18.093 185.435 19.809 186.249 20.865C187.085 21.899 188.317 22.416 189.945 22.416C191.045 22.416 191.936 22.24 192.618 21.888C193.3 21.536 193.938 21.019 194.532 20.337L194.862 20.634C194.18 21.844 193.267 22.79 192.123 23.472C191.001 24.154 189.648 24.495 188.064 24.495C186.502 24.495 185.116 24.165 183.906 23.505C182.696 22.823 181.75 21.855 181.068 20.601C180.386 19.347 180.045 17.851 180.045 16.113C180.045 14.309 180.441 12.78 181.233 11.526C182.025 10.25 183.037 9.282 184.269 8.622C185.523 7.962 186.832 7.632 188.196 7.632ZM188.097 8.292C187.459 8.292 186.909 8.49 186.447 8.886C186.007 9.26 185.655 9.942 185.391 10.932C185.149 11.9 185.017 13.275 184.995 15.057H190.638C190.858 12.659 190.77 10.932 190.374 9.876C189.978 8.82 189.219 8.292 188.097 8.292ZM196.976 31.59V31.26L197.372 31.128C198.186 30.908 198.593 30.38 198.593 29.544V11.592C198.593 11.108 198.505 10.745 198.329 10.503C198.175 10.261 197.878 10.096 197.438 10.008L196.976 9.909V9.579L202.586 7.665L202.916 7.995L203.213 9.018C203.939 8.578 204.742 8.237 205.622 7.995C206.524 7.753 207.448 7.632 208.394 7.632C210.286 7.632 211.782 8.358 212.882 9.81C214.004 11.24 214.565 13.297 214.565 15.981C214.565 18.621 213.949 20.7 212.717 22.218C211.507 23.736 209.791 24.495 207.569 24.495C205.831 24.495 204.368 24.242 203.18 23.736V29.445C203.18 30.325 203.576 30.875 204.368 31.095L204.995 31.26V31.59H196.976ZM205.985 23.538C207.085 23.538 207.954 22.966 208.592 21.822C209.252 20.678 209.582 18.775 209.582 16.113C209.582 13.451 209.274 11.592 208.658 10.536C208.042 9.458 207.151 8.919 205.985 8.919C205.171 8.919 204.269 9.183 203.279 9.711V23.01C204.115 23.362 205.017 23.538 205.985 23.538ZM225.191 7.632C226.621 7.632 227.842 7.929 228.854 8.523C229.866 9.095 230.636 9.887 231.164 10.899C231.714 11.889 231.989 13.022 231.989 14.298C231.989 14.54 231.978 14.793 231.956 15.057C231.934 15.299 231.89 15.519 231.824 15.717H221.99C222.012 18.093 222.43 19.809 223.244 20.865C224.08 21.899 225.312 22.416 226.94 22.416C228.04 22.416 228.931 22.24 229.613 21.888C230.295 21.536 230.933 21.019 231.527 20.337L231.857 20.634C231.175 21.844 230.262 22.79 229.118 23.472C227.996 24.154 226.643 24.495 225.059 24.495C223.497 24.495 222.111 24.165 220.901 23.505C219.691 22.823 218.745 21.855 218.063 20.601C217.381 19.347 217.04 17.851 217.04 16.113C217.04 14.309 217.436 12.78 218.228 11.526C219.02 10.25 220.032 9.282 221.264 8.622C222.518 7.962 223.827 7.632 225.191 7.632ZM225.092 8.292C224.454 8.292 223.904 8.49 223.442 8.886C223.002 9.26 222.65 9.942 222.386 10.932C222.144 11.9 222.012 13.275 221.99 15.057H227.633C227.853 12.659 227.765 10.932 227.369 9.876C226.973 8.82 226.214 8.292 225.092 8.292ZM234.294 24V23.67L234.789 23.538C235.229 23.406 235.526 23.208 235.68 22.944C235.856 22.68 235.944 22.339 235.944 21.921V11.592C235.944 11.108 235.856 10.756 235.68 10.536C235.526 10.294 235.229 10.129 234.789 10.041L234.294 9.909V9.579L239.97 7.665L240.3 7.995L240.597 10.833V11.097C240.905 10.481 241.301 9.92 241.785 9.414C242.291 8.886 242.841 8.457 243.435 8.127C244.051 7.797 244.656 7.632 245.25 7.632C246.086 7.632 246.724 7.863 247.164 8.325C247.604 8.787 247.824 9.37 247.824 10.074C247.824 10.822 247.604 11.405 247.164 11.823C246.746 12.219 246.24 12.417 245.646 12.417C244.722 12.417 243.908 11.955 243.204 11.031L243.138 10.965C242.918 10.657 242.665 10.492 242.379 10.47C242.093 10.426 241.829 10.558 241.587 10.866C241.367 11.064 241.18 11.306 241.026 11.592C240.894 11.856 240.762 12.164 240.63 12.516V21.723C240.63 22.603 241.015 23.153 241.785 23.373L242.841 23.67V24H234.294Z" fill="white"/>
</svg>
