<?xml version="1.0" encoding="utf-8"?>
<!-- Generator: Adobe Illustrator 24.0.2, SVG Export Plug-In . SVG Version: 6.00 Build 0)  -->
<svg version="1.1" id="Layer_1" xmlns="http://www.w3.org/2000/svg" xmlns:xlink="http://www.w3.org/1999/xlink" x="0px" y="0px"
	 viewBox="0 0 553.4 553.4" style="enable-background:new 0 0 553.4 553.4;" xml:space="preserve">
<style type="text/css">
	.st0{fill:none;stroke:#000000;stroke-width:10;stroke-miterlimit:10;}
	.st1{display:none;}
	.st2{fill-rule:evenodd;clip-rule:evenodd;stroke:#FFFFFF;stroke-width:10;stroke-miterlimit:10;}
	.st3{fill-rule:evenodd;clip-rule:evenodd;}
</style>
<g id="Bg">
</g>
<g id="Layer_1_3_">
	<ellipse class="st0" cx="276.7" cy="276.7" rx="263.6" ry="263.6"/>
	<path class="st1" d="M276.7,553.4C124.1,553.4,0,429.2,0,276.7S124.1,0,276.7,0s276.7,124.1,276.7,276.7S429.2,553.4,276.7,553.4z
		 M276.7,26.2c-138.1,0-250.5,112.4-250.5,250.5s112.4,250.5,250.5,250.5s250.5-112.4,250.5-250.5S414.8,26.2,276.7,26.2z"/>
	<path class="st2" d="M279.6,406.9c-27.5,0-53-8.3-74.5-22.3L153.2,401l16.8-50c-16.2-21.9-25.8-49.4-25.8-78.9
		c0-4.4,0.3-8.5,0.9-12.9c6.6-68.1,64.5-121.3,134.5-121.3c71.1,0,129.6,54.7,135.1,123.8c0.2,3.6,0.2,7.2,0.2,10.4
		C414.9,346.4,354.2,406.9,279.6,406.9L279.6,406.9z M440.4,268.4c-2.1-86.5-73.3-155.7-160.8-155.7c-86.6,0-157.1,67.6-160.7,152.7
		c-0.2,2.2-0.2,4.7-0.2,6.8c0,30.3,8.5,58.5,23,82.8l-29.1,85.7l89.3-28.3c23,12.6,49.7,19.7,77.7,19.7
		c88.9,0,161.2-71.4,161.2-159.8C440.8,270.9,440.4,269.8,440.4,268.4z"/>
	<path class="st3" d="M322,294.7c-3.9-1-6.4-1.9-9.2,2.2c-4,6.4-12.5,20.4-20.8,16.2c-4.1-1.9-16.8-6-31.9-19.5
		c-11.8-10.5-19.8-23.1-21.9-27c-3.5-6.5,7.5-13.3,11.5-21.5c1.3-2.7,0.8-4.9-0.3-6.8c-0.8-1.9-8.7-21.4-12.1-29.1
		c-3.3-7.9-6.6-6.6-8.7-6.6c-21.9,0-32.2,15.6-32.2,37.3c0,4.4,0.9,9.1,2.2,13.2c3.9,14,12.6,25.3,14,27.2
		c1.9,2.7,27.2,43.4,67.3,59c40.4,15.7,40.4,10.4,47.5,9.8c7-0.6,23.3-9.3,26.6-18.7c3.3-9.1,3.3-17,2.1-18.7
		C354.9,309.7,322,294.8,322,294.7z"/>
</g>
</svg>
