<svg id="Layer_1" data-name="Layer 1" xmlns="http://www.w3.org/2000/svg" viewBox="0 0 433.92 244.91"><defs><style>.cls-1,.cls-2{fill:#231f20;}.cls-2{font-size:94.79px;font-family:Miama;}</style></defs><title>Untitled-1</title><path class="cls-1" d="M40.41,176.35l24-48.35,12-24.18c4.06-8,7.86-16.18,11.71-24.3l4.65-9.8-2.27,10.6h0c-2.3,10.52-4.59,21-6,31.63A190.68,190.68,0,0,0,83,144a146.85,146.85,0,0,0,4.4,31.73,95.05,95.05,0,0,0,12.87,29.19,69.19,69.19,0,0,0,10.32,12.19c1,.93,2,1.74,3,2.61s2.11,1.63,3.23,2.34a40.17,40.17,0,0,0,7,3.78c.62.24,1.23.53,1.86.73l1.89.58a24.66,24.66,0,0,0,11.78,0A28.17,28.17,0,0,0,153,219.3a26.78,26.78,0,0,0,4.66-6.46,23.35,23.35,0,0,0,2.5-7.54,22.87,22.87,0,0,0-2.83-15.42,19.18,19.18,0,0,0-12.87-8.79,14.62,14.62,0,0,0-7.92.51,32.56,32.56,0,0,0-7,4,32.82,32.82,0,0,1,7-4,14.75,14.75,0,0,1,8-.6,19.49,19.49,0,0,1,13.11,8.78,23.29,23.29,0,0,1,3,15.66,24,24,0,0,1-2.48,7.73,27.48,27.48,0,0,1-4.69,6.63A28.78,28.78,0,0,1,139.59,228a25.16,25.16,0,0,1-16.08-1.26,40,40,0,0,1-7.21-3.8c-1.16-.71-2.23-1.56-3.33-2.35s-2.13-1.7-3.11-2.64a69.59,69.59,0,0,1-10.63-12.29,96.69,96.69,0,0,1-13.35-29.49,149.26,149.26,0,0,1-4.77-32.06,193.94,193.94,0,0,1,1.18-32.41C83.59,100.92,85.8,90.33,88,79.8h0l2.38.8c-3.86,8.14-7.67,16.31-11.72,24.34l-12,24.19-24,48.37Z"/><path class="cls-1" d="M66,180a101.65,101.65,0,0,0-26.4-2.25,80.43,80.43,0,0,0-25.64,5.4l-1-2.67a82.55,82.55,0,0,1,26.58-4.15A102.22,102.22,0,0,1,66,180Z"/><path class="cls-1" d="M97.71,54.81a8.18,8.18,0,0,1,0-3A8.21,8.21,0,0,1,99,49.2a3.19,3.19,0,0,1,2-1.52c.7-.09.89.64,1,1.21a12.16,12.16,0,0,1,.12,2.09,3.86,3.86,0,0,1-.43,2,3.16,3.16,0,0,1-1.8,1.39C99.69,54.45,97.76,55.25,97.71,54.81Z"/><text class="cls-2" transform="translate(97.18 174.56)">va</text><path class="cls-1" d="M281,68.56l-24,48.36-12,24.17c-4.06,8-7.86,16.18-11.71,24.3l-4.65,9.8,2.27-10.6h0c2.3-10.51,4.6-21,6-31.62a191.84,191.84,0,0,0,1.49-32A147.58,147.58,0,0,0,234,69.18,95.05,95.05,0,0,0,221.16,40a68.76,68.76,0,0,0-10.32-12.18c-1-.94-2-1.75-3-2.62s-2.11-1.63-3.23-2.33a39.22,39.22,0,0,0-7-3.79c-.62-.24-1.22-.53-1.85-.72l-1.9-.59a24.4,24.4,0,0,0-3.9-.64,24.05,24.05,0,0,0-7.88.59,28.17,28.17,0,0,0-13.59,7.9,26.67,26.67,0,0,0-4.65,6.46,23.85,23.85,0,0,0,.32,23A19.2,19.2,0,0,0,177,63.82a14.53,14.53,0,0,0,7.92-.51,33,33,0,0,0,7-4,33.69,33.69,0,0,1-7,4,14.84,14.84,0,0,1-8,.59,19.46,19.46,0,0,1-13.11-8.78,23.29,23.29,0,0,1-3-15.66,24.15,24.15,0,0,1,2.48-7.72A27.34,27.34,0,0,1,168,25.18a28.78,28.78,0,0,1,13.86-8.24,25.15,25.15,0,0,1,16.08,1.26,40,40,0,0,1,7.21,3.8c1.16.71,2.23,1.56,3.33,2.36s2.13,1.69,3.11,2.63a69.59,69.59,0,0,1,10.63,12.29,96.69,96.69,0,0,1,13.35,29.49,148.73,148.73,0,0,1,4.77,32.07,193.86,193.86,0,0,1-1.18,32.4c-1.3,10.76-3.51,21.34-5.71,31.88h0l-2.38-.8c3.86-8.14,7.67-16.31,11.73-24.34l12-24.18,24-48.38Z"/><path class="cls-1" d="M255.46,64.88a102.08,102.08,0,0,0,26.4,2.24,80.43,80.43,0,0,0,25.64-5.4l1,2.67a82.55,82.55,0,0,1-26.58,4.15A102.7,102.7,0,0,1,255.46,64.88Z"/><path class="cls-1" d="M223.73,190.1a6.86,6.86,0,0,1-1.31,5.61,3.16,3.16,0,0,1-2,1.52c-.7.09-.89-.64-1-1.21a12.16,12.16,0,0,1-.12-2.09,3.8,3.8,0,0,1,.43-2,3.18,3.18,0,0,1,1.8-1.4C221.75,190.47,223.68,189.66,223.73,190.1Z"/><text class="cls-2" transform="translate(245.33 174.56)">alenčić</text></svg>