<svg width="274" height="164" viewBox="0 0 274 164" fill="none" xmlns="http://www.w3.org/2000/svg">
<path opacity="0.3" d="M187.792 17.8605C185.71 16.2178 183.609 14.6896 181.508 13.3333C182.043 16.0076 182.234 18.4718 182.1 20.6876C181.928 24.1069 181.03 27.0868 179.407 29.5892C177.84 32.0152 175.586 34.0209 172.721 35.549C172.931 34.4984 172.988 33.4478 173.084 32.3972C173.351 29.2645 173.294 26.0362 172.797 22.9035C171.861 16.9245 169.435 11.5186 164.774 7.50722C162.711 5.73072 160.4 4.29807 157.898 3.22835C155.987 2.40696 153.982 1.7957 151.957 1.39455C140.056 -1.01231 126.57 -0.286427 113.944 3.43848C107.602 5.31048 101.489 7.94656 95.7777 11.3085C83.7052 18.3763 73.5811 28.4813 66.4942 40.5538C59.1972 52.9701 55.3386 67.1821 55.3386 81.6423C55.3386 106.609 66.5897 129.856 86.1885 145.443C88.2706 147.086 90.3718 148.614 92.473 149.97C91.9382 147.296 91.7472 144.832 91.8809 142.616C92.0528 139.197 92.9506 136.217 94.5743 133.715C96.1406 131.289 98.3947 129.283 101.26 127.755C100.496 130.945 100.572 134.44 100.859 137.688C101.776 148.328 107.697 157.248 118.012 160.82C119.331 161.279 120.668 161.642 122.043 161.909C133.925 164.297 147.411 163.571 160.037 159.846C166.379 157.974 172.492 155.338 178.203 151.976C190.276 144.908 200.4 134.803 207.487 122.731C214.784 110.315 218.642 96.1026 218.642 81.6423C218.661 56.7141 207.41 33.4669 187.792 17.8605ZM146.245 6.30378C146.245 6.30378 148.156 6.55211 148.633 6.62852L148.843 6.66672C149.684 6.80044 150.543 6.93415 151.403 7.10607C154.268 7.64093 158.261 9.03538 161.069 12.5502C161.393 12.9513 161.699 13.3715 161.966 13.8109C162.921 15.3582 163.533 17.0773 163.762 18.7583C164.22 22.3304 162.673 25.9407 161.298 28.3476C159.674 31.1556 157.267 33.5051 154.134 35.3198L153.772 35.5299L153.848 35.1288C154.899 29.2263 155.223 20.5921 150.925 12.8749C149.646 10.5635 148.003 8.48142 146.093 6.66672L145.653 6.26558L146.245 6.30378ZM127.755 157.019C127.755 157.019 125.844 156.771 125.367 156.694L125.157 156.656C124.316 156.522 123.457 156.37 122.597 156.198C119.732 155.663 115.739 154.268 112.931 150.754C112.607 150.352 112.301 149.932 112.034 149.493C111.078 147.946 110.467 146.226 110.238 144.545C109.78 140.973 111.327 137.363 112.702 134.956C114.326 132.148 116.733 129.799 119.865 127.984L120.228 127.774L120.152 128.175C119.101 134.077 118.777 142.712 123.075 150.429C124.354 152.74 125.997 154.822 127.907 156.637L128.347 157.038L127.755 157.019ZM148.404 155.414C147.621 155.968 146.761 156.408 145.806 156.733C144.87 157.057 143.858 157.267 142.826 157.344H142.75C142.444 157.363 142.119 157.382 141.814 157.382C139.98 157.382 138.222 156.943 136.675 156.102C132.836 153.982 129.913 151.174 128.003 147.755C122.444 137.841 125.94 123.953 128.748 119.273C128.633 119.292 113.925 120.706 107.869 132.091C107.487 132.798 107.163 133.39 106.895 133.982L106.475 134.956C105.921 127.315 110.047 119.522 110.047 119.484C105.52 120.171 95.3574 122.272 89.9134 130.582C88.4043 132.893 87.3537 135.472 86.7806 138.223L86.7042 138.547L86.4559 138.318C70.2382 123.915 60.9355 103.247 60.9355 81.6423C60.9355 57.9558 71.7282 36.0457 90.5437 21.5281L91.0022 21.1843L90.8494 21.7383C88.1751 31.5758 90.2572 41.8909 96.58 50.0093L96.7137 50.1812L96.6755 50.2003L97.1148 50.697L112.358 68.2709L124.144 81.8333H124.106L153.39 115.568C162.52 126.131 160.935 138.433 156.427 146.417C154.459 149.97 151.689 153.084 148.404 155.414ZM176.14 144.297C174.383 147.334 171.727 149.092 170.944 149.55C166.742 151.67 162.367 153.371 157.974 154.631L157.363 154.803L157.764 154.326C159.101 152.759 160.304 151.021 161.336 149.187C167.907 137.535 166.914 123.781 158.757 113.275L158.623 113.103L158.662 113.084L158.222 112.588L133.81 84.4503V84.4312L131.231 81.4513H131.269L116.866 64.8707L116.809 64.8325V64.7943L116.523 64.4887L101.967 47.7362C94.9181 39.5605 93.3708 28.8251 97.8598 19.0258C99.6172 15.9885 102.272 14.2311 103.056 13.7727C107.258 11.6524 111.632 9.95228 116.026 8.69154L116.637 8.51962L116.236 8.99718C114.899 10.5635 113.695 12.3018 112.664 14.1356C106.093 25.7879 107.086 39.5414 115.243 50.0475L115.376 50.2194L115.338 50.2385L115.778 50.7352L140.209 78.8916V78.9107L142.788 81.8906H142.75L157.153 98.4712L157.21 98.5094V98.5476L157.496 98.8533L172.052 115.606C179.082 123.762 180.629 134.498 176.14 144.297ZM183.437 141.757L182.979 142.1L183.131 141.546C185.806 131.709 183.724 121.394 177.401 113.275L177.267 113.103L177.305 113.084L176.866 112.588L161.623 95.0138L149.837 81.4513H149.875L120.591 47.7362C111.46 37.1727 113.046 24.871 117.554 16.8863C119.541 13.3524 122.33 10.2579 125.615 7.90836C127.181 6.80044 129.111 6.13187 131.193 5.97905H131.269C133.428 5.80713 135.529 6.22738 137.344 7.22068C141.183 9.34101 144.106 12.149 146.016 15.5683C151.556 25.4823 147.64 39.9616 145.271 44.0686C145.386 44.0495 160.553 41.9482 166.15 31.2511C166.532 30.5252 166.856 29.9521 167.124 29.36L167.544 28.3858L167.487 29.4364C167.219 37.5739 163.953 43.8584 163.953 43.8584C168.022 43.0753 178.642 41.0695 184.087 32.741C185.596 30.4297 186.646 27.8509 187.219 25.1002L187.296 24.7755L187.544 25.0047C203.762 39.4077 213.064 60.0761 213.064 81.6805V81.7187C213.045 105.329 202.253 127.239 183.437 141.757Z" fill="#1E4C43"/>
<path d="M14.8614 74.0207C14.0591 73.4667 11.4994 71.3273 8.51952 71.3273C6.81944 71.3273 4.79462 71.9958 4.79462 74.4218C4.79462 79.7513 16.466 79.8659 16.466 88.4618C16.466 93.9632 12.1489 96.2173 6.87674 96.2173C3.62939 96.2173 1.27984 95.5487 0.0573062 95.2048V90.8305C1.60457 91.9575 4.10694 93.7531 7.08687 93.7531C10.4488 93.7531 11.6714 91.9575 11.6714 89.99C11.6714 84.4886 0 84.1447 0 76.4084C0 72.3588 2.61698 68.8822 8.90156 68.8822C11.6141 68.8822 13.9636 69.6081 14.8614 69.8373V74.0207Z" fill="#1E4C43"/>
<path d="M27.0294 76.7713C27.0294 72.8363 26.1698 71.8812 22.9225 71.7665V70.6395L32.3589 68.8439V95.5677H27.0294V76.7713ZM26.4373 60.8975C26.4373 58.9873 27.9272 57.4209 29.7992 57.4209C31.6139 57.4209 33.1994 58.93 33.1994 60.8975C33.1994 62.865 31.5948 64.4314 29.7419 64.4314C27.9272 64.4314 26.4373 62.8459 26.4373 60.8975Z" fill="#1E4C43"/>
<path d="M45.8259 76.7712C45.8259 72.8362 44.9281 71.8811 41.5662 71.7665V70.6395L51.1554 68.8439V76.0262H51.27C52.0723 74.0587 54.8994 68.8439 60.1716 68.8439C65.0235 68.8439 66.609 72.4351 66.609 76.7521V95.5486H61.2795V81.0119C61.2795 76.5802 61.2795 72.6452 57.7074 72.6452C54.1926 72.6452 51.1554 77.86 51.1554 81.8524V95.5486H45.8259V76.7712Z" fill="#1E4C43"/>
<path d="M92.0719 95.7396C90.9067 95.9688 89.6842 96.198 88.4999 96.198C83.3805 96.198 80.4006 95.3576 80.4006 88.9584V71.7283H76.2363V69.4743H80.4006V65.0426L85.7301 60.0378V69.4743H92.7023V71.7283H85.7301V88.0606C85.7301 91.9956 85.9975 93.7339 90.1044 93.7339C90.7348 93.7339 91.4416 93.6766 92.0719 93.5047V95.7396Z" fill="#1E4C43"/>
<path d="M120.572 94.689C119.56 95.0902 116.733 96.1981 113.065 96.1981C104.908 96.1981 100.018 90.9832 100.018 81.6041C100.018 72.7408 104.068 68.863 111.212 68.863C120.324 68.863 121.069 75.8162 121.069 79.5793H105.883C105.883 85.1953 108.06 93.1609 115.586 93.1609C117.821 93.1609 119.693 92.6069 120.591 92.2058V94.689H120.572ZM115.72 77.3444C115.72 76.0454 115.606 70.7732 110.983 70.7732C106.991 70.7732 105.864 75.2049 105.864 77.3444H115.72Z" fill="#1E4C43"/>
<path d="M144.01 95.7396C142.845 95.9688 141.623 96.198 140.438 96.198C135.319 96.198 132.339 95.3576 132.339 88.9584V71.7283H128.175V69.4743H132.339V65.0426L137.669 60.0378V69.4743H144.641V71.7283H137.669V88.0606C137.669 91.9956 137.936 93.7339 142.043 93.7339C142.673 93.7339 143.38 93.6766 144.01 93.5047V95.7396Z" fill="#1E4C43"/>
<path d="M156.904 76.7712C156.904 72.8362 156.045 71.8811 152.74 71.7665V70.6395L162.272 68.8439V73.3902H162.387C163.552 71.7092 165.959 68.8439 169.263 68.8439C176.026 68.8439 178.528 75.0138 178.528 82.0816C178.528 88.8819 176.713 96.1789 169.053 96.1789C164.889 96.1789 163.304 93.8867 162.348 92.072H162.234V107.01H156.904V76.7712ZM162.234 84.2974C162.234 87.392 162.826 93.1608 167.563 93.1608C172.205 93.1608 172.683 86.265 172.683 82.1007C172.683 78.0511 172.262 71.8811 167.506 71.8811C162.711 71.8811 162.234 79.0062 162.234 81.9861V84.2974Z" fill="#1E4C43"/>
<path d="M189.034 63.9157C189.034 59.9233 188.136 58.9682 184.984 58.8154V57.6884L194.363 56.2939V95.5869H189.034V63.9157Z" fill="#1E4C43"/>
<path d="M218.7 92.263C217.745 93.4473 215.93 96.198 211.823 96.198C207.659 96.198 204.679 93.0462 204.679 89.7415C204.679 81.8333 215.28 81.2029 218.681 81.0883V78.223C218.681 74.6891 218.681 70.7541 215.319 70.7541C211.804 70.7541 211.594 74.0014 211.594 76.4847H205.252C205.844 72.7789 207.601 68.8439 215.261 68.8439C222.826 68.8439 223.991 72.9508 223.991 78.4904V95.5486H218.661V92.263H218.7ZM218.7 83.1131C216.789 83.1704 210.543 83.4569 210.543 88.7864C210.543 91.3652 211.766 93.1608 213.733 93.1608C216.828 93.1608 218.681 90.1809 218.681 86.3605V83.1131H218.7Z" fill="#1E4C43"/>
<path d="M249.702 74.0207C248.9 73.4667 246.34 71.3273 243.36 71.3273C241.66 71.3273 239.635 71.9958 239.635 74.4218C239.635 79.7513 251.307 79.8659 251.307 88.4618C251.307 93.9632 246.99 96.2173 241.718 96.2173C238.47 96.2173 236.121 95.5487 234.898 95.2048V90.8305C236.445 91.9575 238.948 93.7531 241.928 93.7531C245.29 93.7531 246.512 91.9575 246.512 89.99C246.512 84.4886 234.841 84.1447 234.841 76.4084C234.841 72.3588 237.458 68.8822 243.742 68.8822C246.455 68.8822 248.804 69.6081 249.702 69.8373V74.0207Z" fill="#1E4C43"/>
<path d="M273.37 95.7396C272.204 95.9688 270.982 96.198 269.798 96.198C264.678 96.198 261.698 95.3576 261.698 88.9584V71.7283H257.534V69.4743H261.698V65.0426L267.028 60.0378V69.4743H274V71.7283H267.028V88.0606C267.028 91.9956 267.295 93.7339 271.402 93.7339C272.033 93.7339 272.739 93.6766 273.37 93.5047V95.7396Z" fill="#1E4C43"/>
</svg>
